<?xml version="1.0"?>
<svg xmlns:rdf="http://www.w3.org/1999/02/22-rdf-syntax-ns#" xmlns="http://www.w3.org/2000/svg" xmlns:cc="http://web.resource.org/cc/" xmlns:dc="http://purl.org/dc/elements/1.1/" xmlns:svg="http://www.w3.org/2000/svg" id="svg3198" viewBox="0 0 577.94 355.97" version="1.0">
  <g id="layer1" stroke="#000" transform="translate(-317.5 -205.26)" fill="#fff">
    <rect id="rect10027" stroke-linejoin="round" ry="54.353" height="348.6" width="570.57" stroke-linecap="round" y="208.95" x="321.18" stroke-width="7.3747"/>
    <path id="path3210" d="m363.88 286.98v212.27c32.24 21.08 52.63 16.54 109.16-64.29 56.14-80.25 15.67-246.83-109.16-147.98z" stroke-width="7.863" fill-rule="evenodd"/>
    <path id="path4181" d="m399.13 410.7c-33.83-98.01 23.91-176.73 67.78-118.05 43.88 58.68-28.38 190.36-55.68 179.76-25.47 5.16-18.67-24.26-12.1-61.71z" stroke-width="7.863" fill-rule="evenodd"/>
    <path id="path6127" stroke-linejoin="round" d="m744.36 311.93c-4.14 0.07-8.03 1.84-10.64 4.83-18.46 20.68-26.99 43.44-25.99 66.11 0.99 22.67 10.95 44.65 26.4 65.94 4.35 5.99 13.08 7.56 19.51 3.5 6.42-4.06 8.1-12.22 3.75-18.21-13.54-18.67-20.89-36.16-21.6-52.31s4.64-31.56 19.52-48.23c3.6-3.93 4.39-9.46 2.02-14.13-2.36-4.66-7.44-7.6-12.97-7.5z" fill-rule="evenodd" stroke-linecap="round" stroke-width="7.6312"/>
    <path id="path6129" stroke-linejoin="round" d="m681.41 277.07c-4.12 0.08-8 1.96-10.6 5.16-26.53 31.69-38.44 65.82-37.03 100.03s15.56 67.82 38.03 100.84c2.77 4.23 7.6 6.64 12.65 6.29 5.04-0.34 9.5-3.37 11.68-7.93 2.17-4.57 1.71-9.95-1.2-14.08-20.56-30.21-32.1-59.06-33.22-86.28s7.56-53.48 30.53-80.9c3.61-4.18 4.43-10.09 2.08-15.09-2.34-4.99-7.41-8.14-12.92-8.04v0z" fill-rule="evenodd" stroke-linecap="round" stroke-width="7.863"/>
    <path id="path6131" stroke-linejoin="round" d="m628.41 234.82c-3.64 0.19-7.06 1.79-9.53 4.47-43.12 45.2-62.33 93.6-60.04 142.43 2.3 48.84 25.29 97 62.16 144.57 4.74 6.1 13.52 7.2 19.62 2.47 6.11-4.74 7.21-13.53 2.47-19.63-34.7-44.78-54.39-87.84-56.31-128.72s13.12-80.71 52.34-121.84c4.04-4.12 5.13-10.29 2.76-15.54s-7.72-8.51-13.47-8.21v0z" fill-rule="evenodd" stroke-linecap="round" stroke-width="7.863"/>
    <path id="path10025" stroke-linejoin="round" d="m800.55 398.93a36.388 36.388 0 1 1 0.67 0.64" transform="translate(-14.555 10.301)" stroke-linecap="round" stroke-width="7.863"/>
  </g>
  <metadata>
    <rdf:RDF>
      <cc:Work>
        <dc:format>image/svg+xml</dc:format>
        <dc:type rdf:resource="http://purl.org/dc/dcmitype/StillImage"/>
        <cc:license rdf:resource="http://creativecommons.org/licenses/publicdomain/"/>
        <dc:publisher>
          <cc:Agent rdf:about="http://openclipart.org/">
            <dc:title>Openclipart</dc:title>
          </cc:Agent>
        </dc:publisher>
        <dc:title>Listen... Ok!</dc:title>
        <dc:date>2007-08-11T20:34:24</dc:date>
        <dc:description>A sign that (i hope) suggests listen...</dc:description>
        <dc:source>http://openclipart.org/detail/4771/listen...-ok!-by-bigredsmile</dc:source>
        <dc:creator>
          <cc:Agent>
            <dc:title>BigRedSmile</dc:title>
          </cc:Agent>
        </dc:creator>
        <dc:subject>
          <rdf:Bag>
            <rdf:li>clip art</rdf:li>
            <rdf:li>clipart</rdf:li>
            <rdf:li>ear</rdf:li>
            <rdf:li>image</rdf:li>
            <rdf:li>line art</rdf:li>
            <rdf:li>listen</rdf:li>
            <rdf:li>logo</rdf:li>
            <rdf:li>media</rdf:li>
            <rdf:li>outline</rdf:li>
            <rdf:li>public domain</rdf:li>
            <rdf:li>sign</rdf:li>
            <rdf:li>sound</rdf:li>
            <rdf:li>svg</rdf:li>
          </rdf:Bag>
        </dc:subject>
      </cc:Work>
      <cc:License rdf:about="http://creativecommons.org/licenses/publicdomain/">
        <cc:permits rdf:resource="http://creativecommons.org/ns#Reproduction"/>
        <cc:permits rdf:resource="http://creativecommons.org/ns#Distribution"/>
        <cc:permits rdf:resource="http://creativecommons.org/ns#DerivativeWorks"/>
      </cc:License>
    </rdf:RDF>
  </metadata>
</svg>
