<?xml version="1.0"?>
<svg xmlns:rdf="http://www.w3.org/1999/02/22-rdf-syntax-ns#" xmlns="http://www.w3.org/2000/svg" xmlns:cc="http://creativecommons.org/ns#" xmlns:dc="http://purl.org/dc/elements/1.1/" xmlns:svg="http://www.w3.org/2000/svg" id="svg3884" viewBox="0 0 150 130.53" version="1.1">
  <defs id="defs3886">
    <filter id="filter4076" height="1.2626" width="1.221" y="-.1313" x="-.11049" color-interpolation-filters="sRGB">
      <feGaussianBlur id="feGaussianBlur4078" stdDeviation="1.525"/>
    </filter>
  </defs>
  <g id="layer1" transform="translate(-249.29 -408.14)">
    <g id="g4086" transform="matrix(3.7087 0 0 3.7087 -787.07 -113.25)">
      <path id="path4042-5" filter="url(#filter4076)" fill="#7a7a7a" d="m291.7 164.93c1.8491 0.32186 3.9808 0.5 6.2096 0.5h4.8125c7.479 0 13.5-2.0251 13.5-4.5625v-12.062c0-2.5374-6.021-4.5625-13.5-4.5625h-4.8125c-7.479 0-13.5 2.0251-13.5 4.5625v12.062c0 1.3721 1.7629 2.5995 4.5625 3.4375-1.4319 2.8048-3.7626 5.3479-5.875 7.8125 2.6339-1.8388 4.764-2.7396 8.5938-7.1875"/>
      <path id="path4042" stroke-linejoin="round" d="m290.32 163.19c1.8491 0.32186 3.9808 0.5 6.2096 0.5h4.8125c7.479 0 13.5-2.0251 13.5-4.5625v-12.062c0-2.5374-6.021-4.5625-13.5-4.5625h-4.8125c-7.479 0-13.5 2.0251-13.5 4.5625v12.062c0 1.3721 1.7629 2.5995 4.5625 3.4375-1.4319 2.8048-3.7626 5.3479-5.875 7.8125 2.6339-1.8388 4.764-2.7396 8.5938-7.1875" stroke="#000" stroke-linecap="round" stroke-width=".26963" fill="#fff"/>
    </g>
  </g>
  <metadata>
    <rdf:RDF>
      <cc:Work>
        <dc:format>image/svg+xml</dc:format>
        <dc:type rdf:resource="http://purl.org/dc/dcmitype/StillImage"/>
        <cc:license rdf:resource="http://creativecommons.org/licenses/publicdomain/"/>
        <dc:publisher>
          <cc:Agent rdf:about="http://openclipart.org/">
            <dc:title>Openclipart</dc:title>
          </cc:Agent>
        </dc:publisher>
        <dc:title>Speech bubble</dc:title>
        <dc:date>2010-04-06T21:03:01</dc:date>
        <dc:description>Speech bubble</dc:description>
        <dc:source>http://openclipart.org/detail/38635/speech-bubble-by-pascallapalme-38635</dc:source>
        <dc:creator>
          <cc:Agent>
            <dc:title>pascallapalme</dc:title>
          </cc:Agent>
        </dc:creator>
        <dc:subject>
          <rdf:Bag>
            <rdf:li>cartoon</rdf:li>
            <rdf:li>clip art</rdf:li>
            <rdf:li>clipart</rdf:li>
            <rdf:li>speech bubble</rdf:li>
          </rdf:Bag>
        </dc:subject>
      </cc:Work>
      <cc:License rdf:about="http://creativecommons.org/licenses/publicdomain/">
        <cc:permits rdf:resource="http://creativecommons.org/ns#Reproduction"/>
        <cc:permits rdf:resource="http://creativecommons.org/ns#Distribution"/>
        <cc:permits rdf:resource="http://creativecommons.org/ns#DerivativeWorks"/>
      </cc:License>
    </rdf:RDF>
  </metadata>
</svg>
